<?xml version="1.0" encoding="UTF-8" standalone="no"?>
<?xml-stylesheet href="../resources/svg.css" type="text/css"?>
<svg width="700" height="500" viewBox="0 0 700 500" xmlns="http://www.w3.org/2000/svg">
  <title>Arreglos Multidimensionales en Java</title>
  
  <!-- Título -->
  <text x="350" y="30" class="title">Arreglos Multidimensionales (Matrices)</text>
  
  <!-- Código -->
  <rect x="50" y="60" width="600" height="60" class="code-block"/>
  <text x="70" y="85" class="code-keyword">int</text>
  <text x="95" y="85" class="code">[][] matriz = {</text>
  <text x="90" y="105" class="code">    {1, 2, 3},  {4, 5, 6},  {7, 8, 9}</text>
  <text x="70" y="115" class="code">};</text>
  
  <!-- Stack -->
  <g id="stack-matriz">
    <rect x="50" y="150" width="180" height="60" class="stack-node"/>
    <text x="140" y="175" class="label-bold">Stack</text>
    <text x="70" y="195" class="code">matriz → 0xAAA</text>
  </g>
  
  <!-- Heap: Arreglo de referencias -->
  <g id="heap-refs">
    <rect x="280" y="140" width="380" height="90" class="list-node"/>
    <text x="470" y="165" class="label-bold">Heap: Arreglo de Referencias @ 0xAAA</text>
    
    <rect x="300" y="180" width="100" height="35" class="list-pointer"/>
    <text x="350" y="202" class="code">→ 0xBBB</text>
    
    <rect x="410" y="180" width="100" height="35" class="list-pointer"/>
    <text x="460" y="202" class="code">→ 0xCCC</text>
    
    <rect x="520" y="180" width="100" height="35" class="list-pointer"/>
    <text x="570" y="202" class="code">→ 0xDDD</text>
    
    <text x="315" y="175" class="index">[0]</text>
    <text x="425" y="175" class="index">[1]</text>
    <text x="535" y="175" class="index">[2]</text>
  </g>
  
  <!-- Flechas -->
  <defs>
    <marker id="arrow-matrix" markerWidth="10" markerHeight="10" refX="9" refY="3" orient="auto">
      <polygon points="0 0, 10 3, 0 6" fill="#1565c0"/>
    </marker>
  </defs>
  
  <path d="M 230 180 Q 260 180 300 197" fill="none" stroke="#1565c0" stroke-width="2" marker-end="url(#arrow-matrix)"/>
  
  <!-- Heap: Filas (arreglos individuales) -->
  <g id="heap-filas">
    <!-- Fila 0 -->
    <rect x="50" y="260" width="180" height="60" class="memory-cell-filled"/>
    <text x="140" y="280" class="label-small">Fila 0 @ 0xBBB</text>
    <rect x="60" y="290" width="45" height="25" class="memory-cell"/>
    <rect x="105" y="290" width="45" height="25" class="memory-cell"/>
    <rect x="150" y="290" width="45" height="25" class="memory-cell"/>
    <text x="82" y="307" class="code">1</text>
    <text x="127" y="307" class="code">2</text>
    <text x="172" y="307" class="code">3</text>
    
    <path d="M 350 215 Q 200 240 140 260" fill="none" stroke="#1565c0" stroke-width="2" marker-end="url(#arrow-matrix)"/>
    
    <!-- Fila 1 -->
    <rect x="260" y="260" width="180" height="60" class="memory-cell-filled"/>
    <text x="350" y="280" class="label-small">Fila 1 @ 0xCCC</text>
    <rect x="270" y="290" width="45" height="25" class="memory-cell"/>
    <rect x="315" y="290" width="45" height="25" class="memory-cell"/>
    <rect x="360" y="290" width="45" height="25" class="memory-cell"/>
    <text x="292" y="307" class="code">4</text>
    <text x="337" y="307" class="code">5</text>
    <text x="382" y="307" class="code">6</text>
    
    <path d="M 460 215 Q 410 240 350 260" fill="none" stroke="#1565c0" stroke-width="2" marker-end="url(#arrow-matrix)"/>
    
    <!-- Fila 2 -->
    <rect x="470" y="260" width="180" height="60" class="memory-cell-filled"/>
    <text x="560" y="280" class="label-small">Fila 2 @ 0xDDD</text>
    <rect x="480" y="290" width="45" height="25" class="memory-cell"/>
    <rect x="525" y="290" width="45" height="25" class="memory-cell"/>
    <rect x="570" y="290" width="45" height="25" class="memory-cell"/>
    <text x="502" y="307" class="code">7</text>
    <text x="547" y="307" class="code">8</text>
    <text x="592" y="307" class="code">9</text>
    
    <path d="M 570 215 Q 620 240 560 260" fill="none" stroke="#1565c0" stroke-width="2" marker-end="url(#arrow-matrix)"/>
  </g>
  
  <!-- Acceso -->
  <rect x="50" y="350" width="600" height="130" class="info-box"/>
  <text x="70" y="375" class="label-bold">Acceso a elementos:</text>
  
  <text x="70" y="400" class="code">matriz[1][2]</text>
  <text x="200" y="400" class="code-comment">// Accede a fila 1, columna 2 → 6</text>
  
  <text x="70" y="425" class="code">matriz.length</text>
  <text x="200" y="425" class="code-comment">// Número de filas → 3</text>
  
  <text x="70" y="450" class="code">matriz[0].length</text>
  <text x="200" y="450" class="code-comment">// Número de columnas de fila 0 → 3</text>
  
  <rect x="70" y="460" width="550" height="1" class="divider"/>
  <text x="70" y="475" class="label-small">⚠️ En Java, un arreglo 2D es un "arreglo de arreglos" - cada fila puede tener diferente tamaño</text>
</svg>
