<?xml version="1.0" encoding="UTF-8" standalone="no"?>
<?xml-stylesheet href="../resources/svg.css" type="text/css"?>
<svg width="700" height="450" viewBox="0 0 700 450" xmlns="http://www.w3.org/2000/svg">
  <title>Pasaje de Parámetros: Primitivos vs Referencias</title>
  
  <!-- Título -->
  <text x="350" y="30" class="title">Pasaje de Parámetros en Java</text>
  
  <!-- Primitivos -->
  <g id="primitivos">
    <text x="170" y="65" class="subtitle">Tipos Primitivos (por valor)</text>
    
    <!-- Stack del main -->
    <rect x="50" y="80" width="240" height="80" class="code-block"/>
    <text x="70" y="100" class="label-bold">Stack: main()</text>
    <text x="70" y="120" class="code">int valor = 10</text>
    <line x1="70" y1="135" x2="270" y2="135" class="divider"/>
    <text x="70" y="150" class="code-comment">// llama duplicar(valor)</text>
    
    <!-- Stack del método -->
    <rect x="50" y="180" width="240" height="80" class="code-block"/>
    <text x="70" y="200" class="label-bold">Stack: duplicar(int numero)</text>
    <text x="70" y="220" class="code">numero = 10 (copia)</text>
    <text x="70" y="235" class="code-comment">numero = 20 (cambio local)</text>
    <text x="70" y="250" class="code-comment">// NO afecta a 'valor'</text>
    
    <!-- Flecha que muestra copia -->
    <defs>
      <marker id="arrow-copy" markerWidth="10" markerHeight="10" refX="9" refY="3" orient="auto">
        <polygon points="0 0, 10 3, 0 6" fill="#2e7d32"/>
      </marker>
    </defs>
    <line x1="170" y1="160" x2="170" y2="180" stroke="#2e7d32" stroke-width="2" marker-end="url(#arrow-copy)" stroke-dasharray="4,4"/>
    <text x="180" y="173" class="label-small">copia valor</text>
  </g>
  
  <!-- Referencias -->
  <g id="referencias">
    <text x="520" y="65" class="subtitle">Referencias (copia de dirección)</text>
    
    <!-- Stack del main -->
    <rect x="380" y="80" width="260" height="80" class="code-block"/>
    <text x="400" y="100" class="label-bold">Stack: main()</text>
    <text x="400" y="120" class="code">arr → 0x1A2B</text>
    <line x1="400" y1="135" x2="620" y2="135" class="divider"/>
    <text x="400" y="150" class="code-comment">// llama modificar(arr)</text>
    
    <!-- Stack del método -->
    <rect x="380" y="180" width="260" height="80" class="code-block"/>
    <text x="400" y="200" class="label-bold">Stack: modificar(int[] a)</text>
    <text x="400" y="220" class="code">a → 0x1A2B (copia ref)</text>
    <text x="400" y="235" class="code-comment">a[0] = 999</text>
    <text x="400" y="250" class="code-comment">// SÍ afecta al arreglo</text>
    
    <!-- Heap -->
    <rect x="380" y="290" width="260" height="80" class="list-data"/>
    <text x="400" y="310" class="label-bold">Heap: 0x1A2B</text>
    <rect x="400" y="320" width="40" height="30" class="memory-cell-filled"/>
    <rect x="440" y="320" width="40" height="30" class="memory-cell"/>
    <rect x="480" y="320" width="40" height="30" class="memory-cell"/>
    <text x="420" y="340" class="code">999</text>
    <text x="460" y="340" class="code">2</text>
    <text x="500" y="340" class="code">3</text>
    <text x="405" y="365" class="index">[0]</text>
    <text x="445" y="365" class="index">[1]</text>
    <text x="485" y="365" class="index">[2]</text>
    
    <!-- Flechas al heap -->
    <line x1="510" y1="120" x2="510" y2="290" stroke="#1565c0" stroke-width="2" marker-end="url(#arrow-ref)"/>
    <line x1="510" y1="220" x2="510" y2="290" stroke="#1565c0" stroke-width="2" marker-end="url(#arrow-ref)"/>
    
    <defs>
      <marker id="arrow-ref" markerWidth="10" markerHeight="10" refX="9" refY="3" orient="auto">
        <polygon points="0 0, 10 3, 0 6" fill="#1565c0"/>
      </marker>
    </defs>
    
    <text x="520" y="200" class="label-small">ambas apuntan</text>
    <text x="520" y="215" class="label-small">al mismo objeto</text>
  </g>
  
  <!-- Conclusión -->
  <rect x="50" y="390" width="600" height="40" class="info-box"/>
  <text x="350" y="410" class="label-bold text-center">Todo se pasa por valor, pero para referencias se copia la dirección</text>
  <text x="350" y="425" class="label-small text-center">Cambiar el contenido del objeto afecta al original; reasignar la referencia NO</text>
</svg>
