<?xml version="1.0" encoding="UTF-8" standalone="no"?>
<?xml-stylesheet href="../resources/svg.css" type="text/css"?>
<svg width="800" height="500" viewBox="0 0 800 500" xmlns="http://www.w3.org/2000/svg">
  <title>Modelo de Memoria JVM: Stack y Heap</title>
  
  <!-- Título -->
  <text x="400" y="30" class="title">Modelo de Memoria de la JVM</text>
  
  <!-- Código ejemplo -->
  <rect x="50" y="60" width="700" height="60" class="code-block"/>
  <text x="70" y="85" class="code-keyword">public static void</text>
  <text x="180" y="85" class="code"> metodo() {</text>
  <text x="90" y="105" class="code-keyword">    int</text>
  <text x="120" y="105" class="code"> edad = 25;</text>
  <text x="250" y="105" class="code-keyword">    int</text>
  <text x="280" y="105" class="code">[] numeros = </text>
  <text x="380" y="105" class="code-keyword">new int</text>
  <text x="430" y="105" class="code">[]{1, 2, 3};</text>
  <text x="70" y="115" class="code">}</text>
  
  <!-- STACK -->
  <g id="stack">
    <rect x="50" y="150" width="300" height="320" class="stack-node"/>
    <text x="200" y="175" class="title">STACK (Pila)</text>
    <text x="200" y="193" class="label-small">Memoria rápida, LIFO, tamaño limitado</text>
    
    <!-- Frame del método -->
    <rect x="70" y="210" width="260" height="240" class="code-block"/>
    <text x="90" y="230" class="label-bold">Frame: metodo()</text>
    
    <!-- Variables locales -->
    <text x="90" y="255" class="label">Variables locales:</text>
    
    <!-- Primitivo -->
    <rect x="90" y="265" width="220" height="50" class="queue-data"/>
    <text x="110" y="285" class="code-keyword">int</text>
    <text x="135" y="285" class="code"> edad</text>
    <text x="110" y="305" class="label-small">Valor: 25</text>
    <rect x="230" y="273" width="60" height="30" class="memory-cell-filled"/>
    <text x="260" y="293" class="code">25</text>
    
    <!-- Referencia -->
    <rect x="90" y="330" width="220" height="80" class="list-data"/>
    <text x="110" y="350" class="code-keyword">int</text>
    <text x="135" y="350" class="code">[] numeros</text>
    <text x="110" y="370" class="label-small">Referencia: 0x1A2B</text>
    <rect x="230" y="355" width="60" height="30" class="list-pointer"/>
    <text x="245" y="375" class="code">→</text>
    
    <!-- Flecha al heap -->
    <defs>
      <marker id="arrow-to-heap" markerWidth="10" markerHeight="10" refX="9" refY="3" orient="auto">
        <polygon points="0 0, 10 3, 0 6" fill="#1565c0"/>
      </marker>
    </defs>
    <path d="M 290 370 Q 320 370 350 340" fill="none" stroke="#1565c0" stroke-width="3" marker-end="url(#arrow-to-heap)"/>
    
    <text x="110" y="390" class="label-small">Solo guarda la dirección</text>
    <text x="110" y="405" class="label-small">El arreglo está en HEAP</text>
  </g>
  
  <!-- HEAP -->
  <g id="heap">
    <rect x="400" y="150" width="350" height="320" class="list-node"/>
    <text x="575" y="175" class="title">HEAP (Montículo)</text>
    <text x="575" y="193" class="label-small">Memoria compartida, gestionada por GC</text>
    
    <!-- Objetos en el heap -->
    <text x="420" y="220" class="label-bold">Objetos y arreglos:</text>
    
    <!-- Arreglo en heap -->
    <rect x="420" y="235" width="310" height="120" class="code-block"/>
    <text x="440" y="255" class="label-small">Dirección: 0x1A2B</text>
    <text x="440" y="270" class="code-keyword">int</text>
    <text x="465" y="270" class="code">[] @ 0x1A2B</text>
    
    <text x="440" y="290" class="label-small">Metadata: length = 3</text>
    
    <!-- Elementos del arreglo -->
    <rect x="440" y="300" width="50" height="40" class="memory-cell-filled"/>
    <rect x="490" y="300" width="50" height="40" class="memory-cell-filled"/>
    <rect x="540" y="300" width="50" height="40" class="memory-cell-filled"/>
    <text x="465" y="325" class="code">1</text>
    <text x="515" y="325" class="code">2</text>
    <text x="565" y="325" class="code">3</text>
    
    <!-- Otro objeto (String) -->
    <rect x="420" y="370" width="310" height="80" class="code-block"/>
    <text x="440" y="390" class="label-small">Dirección: 0x5C7D</text>
    <text x="440" y="405" class="code">String "Hola"</text>
    <text x="440" y="425" class="label-small">char[] data = {'H','o','l','a'}</text>
    <text x="440" y="440" class="label-small">Inmutable</text>
  </g>
  
  <!-- Comparación -->
  <rect x="50" y="480" width="700" height="1" class="divider-bold"/>
  <text x="400" y="497" class="label-small text-center">Stack: rápido, automático | Heap: flexible, requiere GC</text>
</svg>
