<?xml version="1.0" encoding="UTF-8" standalone="no"?>
<?xml-stylesheet href="../resources/svg.css" type="text/css"?>
<svg width="750" height="450" viewBox="0 0 750 450" xmlns="http://www.w3.org/2000/svg">
  <title>String Pool e Inmutabilidad</title>
  
  <!-- Título -->
  <text x="375" y="30" class="title">String Pool e Inmutabilidad en Java</text>
  
  <!-- Código ejemplo -->
  <rect x="50" y="60" width="650" height="100" class="code-block"/>
  <text x="70" y="85" class="code">String s1 = "Hola";</text>
  <text x="300" y="85" class="code-comment">// Literal → va al pool</text>
  <text x="70" y="105" class="code">String s2 = "Hola";</text>
  <text x="300" y="105" class="code-comment">// Reutiliza del pool</text>
  <text x="70" y="125" class="code">String s3 = new String("Hola");</text>
  <text x="400" y="125" class="code-comment">// Nuevo objeto fuera del pool</text>
  <text x="70" y="145" class="code">String s4 = s1.toUpperCase();</text>
  <text x="400" y="145" class="code-comment">// Crea NUEVO String</text>
  
  <!-- Stack -->
  <g id="stack">
    <rect x="50" y="180" width="200" height="240" class="stack-node"/>
    <text x="150" y="205" class="subtitle">Stack</text>
    
    <rect x="70" y="220" width="160" height="40" class="stack-data"/>
    <text x="90" y="245" class="code">s1 → 0xAAA</text>
    
    <rect x="70" y="270" width="160" height="40" class="stack-data"/>
    <text x="90" y="295" class="code">s2 → 0xAAA</text>
    
    <rect x="70" y="320" width="160" height="40" class="stack-data"/>
    <text x="90" y="345" class="code">s3 → 0xBBB</text>
    
    <rect x="70" y="370" width="160" height="40" class="stack-data"/>
    <text x="90" y="395" class="code">s4 → 0xCCC</text>
  </g>
  
  <!-- Heap con String Pool -->
  <g id="heap">
    <rect x="300" y="180" width="400" height="240" class="list-node"/>
    <text x="500" y="205" class="subtitle">Heap</text>
    
    <!-- String Pool -->
    <rect x="320" y="220" width="160" height="80" class="queue-data"/>
    <text x="400" y="240" class="label-bold">String Pool</text>
    <rect x="330" y="250" width="140" height="40" class="memory-cell-filled"/>
    <text x="340" y="275" class="code">"Hola" @ 0xAAA</text>
    
    <!-- Objetos fuera del pool -->
    <rect x="500" y="220" width="180" height="80" class="list-data"/>
    <text x="590" y="240" class="label-bold">Fuera del Pool</text>
    <rect x="510" y="250" width="160" height="40" class="memory-cell"/>
    <text x="520" y="275" class="code">"Hola" @ 0xBBB</text>
    
    <!-- Nuevo String (mayúsculas) -->
    <rect x="320" y="320" width="360" height="80" class="list-data"/>
    <text x="500" y="340" class="label-bold">Nuevo String (inmutabilidad)</text>
    <rect x="330" y="350" width="160" height="40" class="memory-cell-filled"/>
    <text x="340" y="375" class="code">"HOLA" @ 0xCCC</text>
    <text x="510" y="375" class="label-small">s1 no cambió,</text>
    <text x="510" y="390" class="label-small">se creó uno nuevo</text>
  </g>
  
  <!-- Flechas -->
  <defs>
    <marker id="arrow-string" markerWidth="10" markerHeight="10" refX="9" refY="3" orient="auto">
      <polygon points="0 0, 10 3, 0 6" fill="#6a1b9a"/>
    </marker>
  </defs>
  
  <path d="M 230 240 Q 270 240 330 270" fill="none" stroke="#6a1b9a" stroke-width="2" marker-end="url(#arrow-string)"/>
  <path d="M 230 290 Q 270 290 330 270" fill="none" stroke="#6a1b9a" stroke-width="2" marker-end="url(#arrow-string)"/>
  <path d="M 230 340 Q 270 340 510 270" fill="none" stroke="#e65100" stroke-width="2" marker-end="url(#arrow-string)"/>
  <path d="M 230 390 Q 270 390 330 370" fill="none" stroke="#2e7d32" stroke-width="2" marker-end="url(#arrow-string)"/>
  
  <!-- Comparación -->
  <text x="375" y="435" class="label-small text-center">s1 == s2 → true (misma ref) | s1 == s3 → false | s1.equals(s3) → true (mismo contenido)</text>
</svg>
