<?xml version="1.0" encoding="UTF-8"?>
<svg width="700" height="400" viewBox="0 0 700 400" xmlns="http://www.w3.org/2000/svg">
  <defs>
    <style>
      /* Tipografías */
      .title { font-family: Arial, sans-serif; font-size: 16px; font-weight: 700; fill: #192437; }
      .subtitle { font-family: Arial, sans-serif; font-size: 14px; font-weight: 500; fill: #2d3a50; }
      .label { font-family: Arial, sans-serif; font-size: 12px; fill: #404040; }
      .label-bold { font-family: Arial, sans-serif; font-size: 12px; font-weight: 700; fill: #192437; }
      .code { font-family: 'Courier New', monospace; font-size: 11px; fill: #404040; }
      .code-keyword { font-family: 'Courier New', monospace; font-size: 11px; font-weight: 700; fill: #eb2141; }
      
      /* Nodos */
      .box-eval { fill: #bbdefb; stroke: #1565c0; stroke-width: 2; rx: 5; }
      .box-skip { fill: #e5e5e5; stroke: #a3a3a3; stroke-width: 2; rx: 5; stroke-dasharray: 5,3; }
      .box-result-true { fill: #c8e6c9; stroke: #2e7d32; stroke-width: 2; rx: 5; }
      .box-result-false { fill: #ffcdd2; stroke: #c62828; stroke-width: 2; rx: 5; }
      .box-condition { fill: #fff3e0; stroke: #f57c00; stroke-width: 2; rx: 5; }
      
      /* Flechas */
      .arrow { fill: none; stroke: #404040; stroke-width: 2; }
      .arrow-skip { fill: none; stroke: #a3a3a3; stroke-width: 2; stroke-dasharray: 5,3; }
      
      /* Separadores */
      .divider { stroke: #d4d4d4; stroke-width: 1; }
    </style>
    <marker id="arrowhead" markerWidth="10" markerHeight="7" refX="9" refY="3.5" orient="auto">
      <polygon points="0 0, 10 3.5, 0 7" fill="#404040"/>
    </marker>
    <marker id="arrowhead-skip" markerWidth="10" markerHeight="7" refX="9" refY="3.5" orient="auto">
      <polygon points="0 0, 10 3.5, 0 7" fill="#a3a3a3"/>
    </marker>
  </defs>
  
  <!-- Título -->
  <text x="350" y="25" class="title" text-anchor="middle">Evaluación en Cortocircuito</text>
  
  <!-- Sección AND (&&) -->
  <text x="175" y="55" class="subtitle" text-anchor="middle">Operador AND (&&)</text>
  
  <!-- Caso 1: a es false -->
  <text x="175" y="80" class="label" text-anchor="middle">Caso: a = false</text>
  
  <rect x="50" y="95" width="80" height="35" class="box-eval"/>
  <text x="90" y="117" class="code" text-anchor="middle">Evaluar a</text>
  
  <path d="M130 112 L160 112" class="arrow" marker-end="url(#arrowhead)"/>
  
  <rect x="160" y="95" width="80" height="35" class="box-condition"/>
  <text x="200" y="112" class="label-bold" text-anchor="middle">a = false</text>
  <text x="200" y="124" class="label" text-anchor="middle">¿Evaluar b?</text>
  
  <path d="M240 112 L270 112" class="arrow-skip" marker-end="url(#arrowhead-skip)"/>
  
  <rect x="270" y="95" width="80" height="35" class="box-skip"/>
  <text x="310" y="112" class="code" text-anchor="middle" fill="#a3a3a3">b NO se</text>
  <text x="310" y="124" class="code" text-anchor="middle" fill="#a3a3a3">evalúa</text>
  
  <text x="200" y="150" class="label" text-anchor="middle">→ Resultado: false (sin evaluar b)</text>
  
  <!-- Caso 2: a es true -->
  <text x="175" y="180" class="label" text-anchor="middle">Caso: a = true</text>
  
  <rect x="50" y="195" width="80" height="35" class="box-eval"/>
  <text x="90" y="217" class="code" text-anchor="middle">Evaluar a</text>
  
  <path d="M130 212 L160 212" class="arrow" marker-end="url(#arrowhead)"/>
  
  <rect x="160" y="195" width="80" height="35" class="box-result-true"/>
  <text x="200" y="212" class="label-bold" text-anchor="middle">a = true</text>
  <text x="200" y="224" class="label" text-anchor="middle">Continuar...</text>
  
  <path d="M240 212 L270 212" class="arrow" marker-end="url(#arrowhead)"/>
  
  <rect x="270" y="195" width="80" height="35" class="box-eval"/>
  <text x="310" y="212" class="code" text-anchor="middle">Evaluar b</text>
  
  <text x="200" y="250" class="label" text-anchor="middle">→ Resultado: depende de b</text>
  
  <!-- Línea divisoria -->
  <line x1="360" y1="50" x2="360" y2="380" class="divider"/>
  
  <!-- Sección OR (||) -->
  <text x="525" y="55" class="subtitle" text-anchor="middle">Operador OR (||)</text>
  
  <!-- Caso 1: a es true -->
  <text x="525" y="80" class="label" text-anchor="middle">Caso: a = true</text>
  
  <rect x="400" y="95" width="80" height="35" class="box-eval"/>
  <text x="440" y="117" class="code" text-anchor="middle">Evaluar a</text>
  
  <path d="M480 112 L510 112" class="arrow" marker-end="url(#arrowhead)"/>
  
  <rect x="510" y="95" width="80" height="35" class="box-result-true"/>
  <text x="550" y="112" class="label-bold" text-anchor="middle">a = true</text>
  <text x="550" y="124" class="label" text-anchor="middle">¿Evaluar b?</text>
  
  <path d="M590 112 L620 112" class="arrow-skip" marker-end="url(#arrowhead-skip)"/>
  
  <rect x="620" y="95" width="70" height="35" class="box-skip"/>
  <text x="655" y="112" class="code" text-anchor="middle" fill="#a3a3a3">b NO se</text>
  <text x="655" y="124" class="code" text-anchor="middle" fill="#a3a3a3">evalúa</text>
  
  <text x="525" y="150" class="label" text-anchor="middle">→ Resultado: true (sin evaluar b)</text>
  
  <!-- Caso 2: a es false -->
  <text x="525" y="180" class="label" text-anchor="middle">Caso: a = false</text>
  
  <rect x="400" y="195" width="80" height="35" class="box-eval"/>
  <text x="440" y="217" class="code" text-anchor="middle">Evaluar a</text>
  
  <path d="M480 212 L510 212" class="arrow" marker-end="url(#arrowhead)"/>
  
  <rect x="510" y="195" width="80" height="35" class="box-result-false"/>
  <text x="550" y="212" class="label-bold" text-anchor="middle">a = false</text>
  <text x="550" y="224" class="label" text-anchor="middle">Continuar...</text>
  
  <path d="M590 212 L620 212" class="arrow" marker-end="url(#arrowhead)"/>
  
  <rect x="620" y="195" width="70" height="35" class="box-eval"/>
  <text x="655" y="217" class="code" text-anchor="middle">Evaluar b</text>
  
  <text x="525" y="250" class="label" text-anchor="middle">→ Resultado: depende de b</text>
  
  <!-- Ejemplo práctico -->
  <rect x="50" y="280" width="600" height="100" fill="#f5f5f5" stroke="#d4d4d4" stroke-width="1" rx="5"/>
  <text x="350" y="300" class="subtitle" text-anchor="middle">Ejemplo: Prevenir NullPointerException</text>
  
  <text x="70" y="325" class="code">
    <tspan class="code-keyword">if</tspan> (objeto != <tspan class="code-keyword">null</tspan> &amp;&amp; objeto.metodo()) { ... }
  </text>
  
  <text x="70" y="350" class="label">Si objeto es null → primera condición es false → objeto.metodo() NO se ejecuta</text>
  <text x="70" y="368" class="label">→ Se evita NullPointerException gracias al cortocircuito</text>
</svg>
