<?xml version="1.0" encoding="UTF-8" standalone="no"?>
<!-- Created with Inkscape (http://www.inkscape.org/) -->

<svg
   width="764.25702mm"
   height="83.65062mm"
   viewBox="0 0 764.25702 83.650619"
   version="1.1"
   id="svg1"
   xml:space="preserve"
   inkscape:version="1.4.3 (0d15f75042, 2025-12-25)"
   sodipodi:docname="unrn-p1_big.svg"
   inkscape:export-filename="unrn-ic_black.png"
   inkscape:export-xdpi="26.080282"
   inkscape:export-ydpi="26.080282"
   xmlns:inkscape="http://www.inkscape.org/namespaces/inkscape"
   xmlns:sodipodi="http://sodipodi.sourceforge.net/DTD/sodipodi-0.dtd"
   xmlns:xlink="http://www.w3.org/1999/xlink"
   xmlns="http://www.w3.org/2000/svg"
   xmlns:svg="http://www.w3.org/2000/svg"><sodipodi:namedview
     id="namedview1"
     pagecolor="#ffffff"
     bordercolor="#000000"
     borderopacity="0.25"
     inkscape:showpageshadow="2"
     inkscape:pageopacity="0.0"
     inkscape:pagecheckerboard="0"
     inkscape:deskcolor="#d1d1d1"
     inkscape:document-units="mm"
     inkscape:zoom="0.26425487"
     inkscape:cx="1729.391"
     inkscape:cy="261.11155"
     inkscape:window-width="1872"
     inkscape:window-height="1043"
     inkscape:window-x="0"
     inkscape:window-y="0"
     inkscape:window-maximized="1"
     inkscape:current-layer="layer1" /><defs
     id="defs1"><linearGradient
       id="linearGradient1"
       inkscape:collect="always"><stop
         style="stop-color:#424242;stop-opacity:1;"
         offset="0"
         id="stop1" /><stop
         style="stop-color:#424242;stop-opacity:0;"
         offset="1"
         id="stop2" /></linearGradient><linearGradient
       inkscape:collect="always"
       xlink:href="#linearGradient1"
       id="linearGradient2"
       x1="105.10803"
       y1="198.81245"
       x2="105.37261"
       y2="198.81245"
       gradientUnits="userSpaceOnUse"
       gradientTransform="translate(30.438966,17.526081)" /><clipPath
       clipPathUnits="userSpaceOnUse"
       id="clipPath838"><path
         d="M 0,660 H 660 V 0 H 0 Z"
         id="path836" /></clipPath><clipPath
       clipPathUnits="userSpaceOnUse"
       id="clipPath848"><path
         d="M -102.917,69.2871 H 102.917 V -69.2871 h -205.834 z"
         id="path846" /></clipPath><clipPath
       clipPathUnits="userSpaceOnUse"
       id="clipPath1476"><path
         d="M -102.917,69.2871 H 102.917 V -69.2871 h -205.834 z"
         id="path1474" /></clipPath><clipPath
       clipPathUnits="userSpaceOnUse"
       id="clipPath2104"><path
         d="M -102.917,69.2871 H 102.917 V -69.2871 h -205.834 z"
         id="path2102" /></clipPath><clipPath
       clipPathUnits="userSpaceOnUse"
       id="clipPath2732"><path
         d="M -102.917,69.2871 H 102.917 V -69.2871 h -205.834 z"
         id="path2730" /></clipPath><clipPath
       clipPathUnits="userSpaceOnUse"
       id="clipPath3360"><path
         d="M -102.917,69.2871 H 102.917 V -69.2871 h -205.834 z"
         id="path3358" /></clipPath><clipPath
       clipPathUnits="userSpaceOnUse"
       id="clipPath3988"><path
         d="M -102.917,69.2871 H 102.917 V -69.2871 h -205.834 z"
         id="path3986" /></clipPath><clipPath
       clipPathUnits="userSpaceOnUse"
       id="clipPath4616"><path
         d="M -102.917,69.2871 H 102.917 V -69.2871 h -205.834 z"
         id="path4614" /></clipPath><clipPath
       clipPathUnits="userSpaceOnUse"
       id="clipPath5244"><path
         d="M -102.917,69.2871 H 102.917 V -69.2871 h -205.834 z"
         id="path5242" /></clipPath><clipPath
       clipPathUnits="userSpaceOnUse"
       id="clipPath5872"><path
         d="M -102.917,69.2871 H 102.917 V -69.2871 h -205.834 z"
         id="path5870" /></clipPath><clipPath
       clipPathUnits="userSpaceOnUse"
       id="clipPath6500"><path
         d="M -102.917,69.2871 H 102.917 V -69.2871 h -205.834 z"
         id="path6498" /></clipPath><clipPath
       clipPathUnits="userSpaceOnUse"
       id="clipPath7128"><path
         d="M -102.917,69.2871 H 102.917 V -69.2871 h -205.834 z"
         id="path7126" /></clipPath><clipPath
       clipPathUnits="userSpaceOnUse"
       id="clipPath7756"><path
         d="M -102.917,69.2871 H 102.917 V -69.2871 h -205.834 z"
         id="path7754" /></clipPath><clipPath
       clipPathUnits="userSpaceOnUse"
       id="clipPath8384"><path
         d="M -102.917,69.2871 H 102.917 V -69.2871 h -205.834 z"
         id="path8382" /></clipPath></defs><g
     inkscape:label="Layer 1"
     inkscape:groupmode="layer"
     id="layer1"
     transform="translate(-31.693137,-174.51323)"><g
       id="g1"
       transform="matrix(0.70404227,0,0,0.70404227,52.980114,64.027064)"><g
         id="g10"
         transform="matrix(1.9338869,0,0,1.9338869,152.5518,179.3926)">
		<path
   fill="#ed1748"
   d="m 32.573,21.326 c 0,5.49 -1.245,8.734 -3.735,11.23 -2.49,2.495 -6.475,4.042 -11.954,4.042 C 11.405,36.598 7.42,35.051 4.93,32.556 2.44,30.06 1.194,26.816 1.194,21.326 V 1.611 H 12.5 v 20.214 c 0,2.046 0.399,2.995 1.146,3.743 0.747,0.749 1.743,1.248 3.238,1.248 1.494,0 2.49,-0.499 3.237,-1.248 0.748,-0.749 1.096,-1.747 1.096,-3.743 V 1.611 h 11.355 v 19.715 z"
   id="path2" />
		<path
   fill="#ed1748"
   d="M 71.422,36.05 H 59.717 L 49.257,16.834 c 0,0 0.249,3.743 0.249,6.238 V 36.05 H 38.549 V 1.611 h 12.202 l 9.962,19.215 c 0,0 -0.249,-3.743 -0.249,-6.239 V 1.611 h 10.958 z"
   id="path4" />
		<path
   fill="#ed1748"
   d="M 108.776,36.05 H 95.825 L 90.347,24.57 H 88.902 V 36.05 H 77.646 V 1.611 h 14.943 c 4.232,0 7.47,0.749 9.96,2.496 2.49,1.747 4.234,4.742 4.234,8.484 0,6.988 -4.234,9.483 -5.729,10.382 z M 94.183,10.745 c -0.498,-0.399 -1.246,-0.649 -2.491,-0.649 h -2.839 v 5.989 h 2.839 c 1.245,0 2.042,-0.25 2.491,-0.599 0.549,-0.4 1.246,-0.899 1.246,-2.396 0,-1.497 -0.748,-1.995 -1.246,-2.345 z"
   id="path6" />
		<path
   fill="#ed1748"
   d="M 144.636,36.05 H 132.931 L 122.472,16.835 c 0,0 0.25,3.743 0.25,6.238 V 36.05 H 111.763 V 1.611 h 12.203 l 9.961,19.215 c 0,0 -0.248,-3.743 -0.248,-6.239 V 1.611 h 10.957 z"
   id="path8" />
	</g><g
         id="g70"
         style="fill:#000000"
         transform="matrix(2.3329842,0,0,2.3329842,448.02755,55.626254)">
		<path
   fill="#ffffff"
   d="m 1.444,60.445 v -5.643 h 1.095 v 5.572 c 0,2.107 1.095,3.272 2.966,3.272 1.789,0 2.926,-1.082 2.926,-3.202 v -5.643 h 1.094 v 5.56 c 0,2.841 -1.622,4.297 -4.047,4.297 -2.398,0.001 -4.034,-1.47 -4.034,-4.213 z"
   id="path12"
   style="fill:#000000" />
		<path
   fill="#ffffff"
   d="m 11.938,57.34 h 1.068 v 1.248 c 0.484,-0.776 1.219,-1.399 2.454,-1.399 1.718,0 2.744,1.164 2.744,2.867 v 4.45 h -1.067 v -4.187 c 0,-1.329 -0.707,-2.161 -1.982,-2.161 -1.233,0 -2.148,0.901 -2.148,2.245 v 4.103 H 11.939 V 57.34 Z"
   id="path14"
   style="fill:#000000" />
		<path
   fill="#ffffff"
   d="m 20.506,54.597 h 1.22 v 1.178 h -1.22 z m 0.069,2.743 h 1.068 v 7.166 h -1.068 z"
   id="path16"
   style="fill:#000000" />
		<path
   fill="#ffffff"
   d="m 23.417,57.34 h 1.177 l 2.413,5.946 2.426,-5.946 h 1.151 l -3.12,7.222 h -0.942 z"
   id="path18"
   style="fill:#000000" />
		<path
   fill="#ffffff"
   d="m 32.9,61.36 c 0.152,1.511 1.261,2.384 2.522,2.384 0.998,0 1.663,-0.403 2.259,-1.012 l 0.666,0.596 c -0.721,0.818 -1.58,1.345 -2.953,1.345 -1.954,0 -3.576,-1.511 -3.576,-3.742 0,-2.08 1.441,-3.742 3.438,-3.742 2.121,0 3.34,1.69 3.34,3.797 0,0.098 0,0.209 -0.013,0.375 H 32.9 Z m 4.616,-0.859 c -0.111,-1.29 -0.887,-2.412 -2.287,-2.412 -1.22,0 -2.177,1.025 -2.329,2.412 z"
   id="path20"
   style="fill:#000000" />
		<path
   fill="#ffffff"
   d="m 40.469,57.34 h 1.068 v 1.871 c 0.526,-1.191 1.566,-2.037 2.924,-1.996 v 1.15 h -0.083 c -1.566,0 -2.841,1.124 -2.841,3.285 v 2.855 h -1.068 z"
   id="path22"
   style="fill:#000000" />
		<path
   fill="#ffffff"
   d="m 45.488,63.591 0.541,-0.762 c 0.776,0.596 1.635,0.915 2.481,0.915 0.873,0 1.483,-0.43 1.483,-1.136 V 62.58 c 0,-0.707 -0.845,-0.999 -1.788,-1.262 -1.108,-0.333 -2.37,-0.693 -2.37,-2.023 v -0.027 c 0,-1.233 1.026,-2.053 2.44,-2.053 0.887,0 1.843,0.305 2.579,0.79 l -0.486,0.806 c -0.666,-0.431 -1.414,-0.694 -2.121,-0.694 -0.846,0 -1.386,0.443 -1.386,1.039 v 0.028 c 0,0.679 0.887,0.942 1.844,1.233 1.109,0.334 2.301,0.764 2.301,2.052 v 0.027 c 0,1.358 -1.123,2.149 -2.551,2.149 -1.04,0.001 -2.149,-0.402 -2.967,-1.054 z"
   id="path24"
   style="fill:#000000" />
		<path
   fill="#ffffff"
   d="m 53.016,54.597 h 1.22 v 1.178 h -1.22 z m 0.068,2.743 h 1.068 v 7.166 h -1.068 z"
   id="path26"
   style="fill:#000000" />
		<path
   fill="#ffffff"
   d="m 56.218,60.943 v -0.026 c 0,-2.329 1.705,-3.729 3.423,-3.729 1.331,0 2.19,0.707 2.745,1.523 v -4.325 h 1.067 v 10.119 h -1.067 v -1.441 c -0.596,0.859 -1.414,1.595 -2.745,1.595 -1.718,0 -3.423,-1.357 -3.423,-3.716 z m 6.211,-0.012 v -0.029 c 0,-1.648 -1.263,-2.757 -2.593,-2.757 -1.386,0 -2.523,1.026 -2.523,2.757 v 0.029 c 0,1.704 1.15,2.771 2.523,2.771 1.33,0 2.593,-1.122 2.593,-2.771 z"
   id="path28"
   style="fill:#000000" />
		<path
   fill="#ffffff"
   d="M 65.299,62.427 V 62.4 c 0,-1.538 1.247,-2.344 3.063,-2.344 0.928,0 1.539,0.126 2.189,0.307 v -0.222 c 0,-1.275 -0.775,-1.94 -2.121,-1.94 -0.845,0 -1.51,0.194 -2.175,0.512 L 65.936,57.84 c 0.79,-0.374 1.553,-0.61 2.606,-0.61 1.012,0 1.789,0.265 2.314,0.791 0.5,0.498 0.749,1.206 0.749,2.106 v 4.38 H 70.551 V 63.44 c -0.499,0.652 -1.316,1.221 -2.578,1.221 -1.344,-0.002 -2.674,-0.751 -2.674,-2.234 z m 5.267,-0.554 v -0.666 c -0.54,-0.152 -1.206,-0.306 -2.093,-0.306 -1.33,0 -2.093,0.569 -2.093,1.442 v 0.028 c 0,0.9 0.846,1.427 1.802,1.427 1.317,10e-4 2.384,-0.776 2.384,-1.925 z"
   id="path30"
   style="fill:#000000" />
		<path
   fill="#ffffff"
   d="m 73.451,60.943 v -0.026 c 0,-2.329 1.705,-3.729 3.423,-3.729 1.331,0 2.191,0.707 2.746,1.523 v -4.325 h 1.067 V 64.505 H 79.62 v -1.441 c -0.596,0.859 -1.415,1.595 -2.746,1.595 -1.719,0 -3.423,-1.357 -3.423,-3.716 z m 6.209,-0.012 v -0.029 c 0,-1.648 -1.261,-2.757 -2.591,-2.757 -1.387,0 -2.522,1.026 -2.522,2.757 v 0.029 c 0,1.704 1.15,2.771 2.522,2.771 1.33,0 2.591,-1.122 2.591,-2.771 z"
   id="path32"
   style="fill:#000000" />
		<path
   fill="#ffffff"
   d="m 87.41,54.803 h 1.026 l 6.114,7.777 v -7.777 h 1.068 v 9.703 h -0.875 l -6.265,-7.955 v 7.955 H 87.41 Z"
   id="path34"
   style="fill:#000000" />
		<path
   fill="#ffffff"
   d="M 97.642,62.427 V 62.4 c 0,-1.538 1.248,-2.344 3.064,-2.344 0.93,0 1.539,0.126 2.189,0.307 v -0.222 c 0,-1.275 -0.775,-1.94 -2.121,-1.94 -0.844,0 -1.51,0.194 -2.176,0.512 L 98.28,57.84 c 0.789,-0.374 1.553,-0.61 2.605,-0.61 1.012,0 1.787,0.265 2.314,0.791 0.5,0.498 0.748,1.206 0.748,2.106 v 4.38 h -1.053 V 63.44 c -0.5,0.652 -1.316,1.221 -2.578,1.221 -1.342,-0.002 -2.674,-0.751 -2.674,-2.234 z m 5.267,-0.554 v -0.666 c -0.541,-0.152 -1.205,-0.306 -2.094,-0.306 -1.33,0 -2.092,0.569 -2.092,1.442 v 0.028 c 0,0.9 0.846,1.427 1.803,1.427 1.315,10e-4 2.383,-0.776 2.383,-1.925 z"
   id="path36"
   style="fill:#000000" />
		<path
   fill="#ffffff"
   d="m 105.767,60.958 v -0.027 c 0,-2.038 1.566,-3.742 3.672,-3.742 1.359,0 2.191,0.554 2.871,1.275 l -0.709,0.747 c -0.566,-0.596 -1.191,-1.081 -2.176,-1.081 -1.453,0 -2.564,1.22 -2.564,2.771 v 0.029 c 0,1.552 1.139,2.786 2.635,2.786 0.93,0 1.623,-0.458 2.189,-1.067 l 0.68,0.637 c -0.721,0.817 -1.58,1.387 -2.926,1.387 -2.106,0 -3.672,-1.705 -3.672,-3.715 z"
   id="path38"
   style="fill:#000000" />
		<path
   fill="#ffffff"
   d="m 114.155,54.597 h 1.219 v 1.178 h -1.219 z m 0.069,2.743 h 1.066 v 7.166 h -1.066 z"
   id="path40"
   style="fill:#000000" />
		<path
   fill="#ffffff"
   d="m 117.329,60.958 v -0.027 c 0,-2.038 1.566,-3.742 3.742,-3.742 2.162,0 3.729,1.69 3.729,3.713 v 0.029 c 0,2.037 -1.594,3.742 -3.756,3.742 -2.148,0 -3.715,-1.691 -3.715,-3.715 z m 6.375,0 v -0.027 c 0,-1.539 -1.15,-2.801 -2.66,-2.801 -1.553,0 -2.621,1.262 -2.621,2.771 v 0.029 c 0,1.538 1.137,2.786 2.648,2.786 1.553,10e-4 2.633,-1.26 2.633,-2.758 z"
   id="path42"
   style="fill:#000000" />
		<path
   fill="#ffffff"
   d="m 126.728,57.34 h 1.068 v 1.248 c 0.484,-0.776 1.219,-1.399 2.453,-1.399 1.719,0 2.744,1.164 2.744,2.867 v 4.45 h -1.066 v -4.187 c 0,-1.329 -0.709,-2.161 -1.982,-2.161 -1.234,0 -2.148,0.901 -2.148,2.245 v 4.103 h -1.068 V 57.34 Z"
   id="path44"
   style="fill:#000000" />
		<path
   fill="#ffffff"
   d="M 134.728,62.427 V 62.4 c 0,-1.538 1.246,-2.344 3.064,-2.344 0.928,0 1.537,0.126 2.189,0.307 v -0.222 c 0,-1.275 -0.777,-1.94 -2.121,-1.94 -0.846,0 -1.51,0.194 -2.178,0.512 l -0.318,-0.873 c 0.791,-0.374 1.553,-0.61 2.607,-0.61 1.012,0 1.787,0.265 2.314,0.791 0.498,0.498 0.748,1.206 0.748,2.106 v 4.38 H 139.98 V 63.44 c -0.5,0.652 -1.316,1.221 -2.58,1.221 -1.342,-0.002 -2.672,-0.751 -2.672,-2.234 z m 5.267,-0.554 v -0.666 c -0.541,-0.152 -1.205,-0.306 -2.094,-0.306 -1.332,0 -2.094,0.569 -2.094,1.442 v 0.028 c 0,0.9 0.846,1.427 1.803,1.427 1.317,10e-4 2.385,-0.776 2.385,-1.925 z"
   id="path46"
   style="fill:#000000" />
		<path
   fill="#ffffff"
   d="m 143.392,54.387 h 1.068 v 10.119 h -1.068 z"
   id="path48"
   style="fill:#000000" />
		<path
   fill="#ffffff"
   d="m 1,77.581 v -0.028 c 0,-2.329 1.705,-3.729 3.424,-3.729 1.331,0 2.19,0.707 2.745,1.525 V 71.025 H 8.236 V 81.143 H 7.168 V 79.702 C 6.572,80.562 5.754,81.296 4.423,81.296 2.705,81.295 1,79.937 1,77.581 Z m 6.209,-0.015 v -0.027 c 0,-1.65 -1.261,-2.76 -2.592,-2.76 -1.386,0 -2.522,1.026 -2.522,2.76 v 0.027 c 0,1.705 1.15,2.772 2.522,2.772 1.332,0.001 2.592,-1.121 2.592,-2.772 z"
   id="path50"
   style="fill:#000000" />
		<path
   fill="#ffffff"
   d="m 11.259,77.996 c 0.153,1.511 1.261,2.384 2.523,2.384 0.998,0 1.663,-0.4 2.259,-1.012 l 0.665,0.597 c -0.72,0.817 -1.58,1.344 -2.952,1.344 -1.954,0 -3.576,-1.51 -3.576,-3.742 0,-2.078 1.441,-3.743 3.438,-3.743 2.121,0 3.34,1.692 3.34,3.799 0,0.097 0,0.208 -0.013,0.374 h -5.684 z m 4.616,-0.859 c -0.11,-1.289 -0.887,-2.411 -2.287,-2.411 -1.22,0 -2.176,1.025 -2.329,2.411 z"
   id="path52"
   style="fill:#000000" />
		<path
   fill="#ffffff"
   d="m 22.96,71.439 h 4.435 c 1.234,0 2.176,0.333 2.828,0.984 0.555,0.554 0.832,1.29 0.832,2.219 v 0.026 c 0,1.566 -0.845,2.551 -2.079,3.009 l 2.37,3.465 h -2.495 l -2.079,-3.104 h -0.028 -1.649 v 3.104 H 22.96 Z m 4.296,4.714 c 1.054,0 1.636,-0.541 1.636,-1.374 v -0.026 c 0,-0.93 -0.624,-1.386 -1.677,-1.386 h -2.121 v 2.786 z"
   id="path54"
   style="fill:#000000" />
		<path
   fill="#ffffff"
   d="m 32.858,73.714 h 2.107 v 7.429 h -2.107 z m 1.705,-3.272 1.816,0.789 -1.774,1.665 h -1.608 z"
   id="path56"
   style="fill:#000000" />
		<path
   fill="#ffffff"
   d="m 36.587,77.47 v -0.027 c 0,-2.135 1.719,-3.868 4.034,-3.868 2.287,0 4.006,1.692 4.006,3.84 v 0.028 c 0,2.135 -1.719,3.866 -4.034,3.866 -2.287,0 -4.006,-1.692 -4.006,-3.839 z m 5.961,0 v -0.027 c 0,-1.095 -0.791,-2.051 -1.955,-2.051 -1.206,0 -1.926,0.913 -1.926,2.022 v 0.028 c 0,1.096 0.79,2.051 1.954,2.051 1.207,0 1.927,-0.915 1.927,-2.023 z"
   id="path58"
   style="fill:#000000" />
		<path
   fill="#ffffff"
   d="m 50.534,71.439 h 1.968 l 4.546,5.975 v -5.975 h 2.107 v 9.703 H 57.339 L 52.64,74.974 v 6.168 h -2.106 z"
   id="path60"
   style="fill:#000000" />
		<path
   fill="#ffffff"
   d="m 60.904,77.47 v -0.027 c 0,-2.121 1.51,-3.868 3.672,-3.868 2.481,0 3.618,1.927 3.618,4.034 0,0.167 -0.014,0.348 -0.028,0.554 h -5.169 c 0.207,0.958 0.873,1.455 1.815,1.455 0.707,0 1.206,-0.221 1.802,-0.763 l 1.206,1.068 c -0.707,0.873 -1.691,1.386 -3.035,1.386 -2.231,0 -3.881,-1.566 -3.881,-3.839 z m 5.239,-0.624 c -0.125,-0.941 -0.678,-1.579 -1.566,-1.579 -0.887,0 -1.44,0.622 -1.607,1.579 z"
   id="path62"
   style="fill:#000000" />
		<path
   fill="#ffffff"
   d="m 69.804,82.612 0.721,-1.581 c 0.776,0.431 1.511,0.68 2.509,0.68 1.442,0 2.121,-0.693 2.121,-2.024 v -0.359 c -0.624,0.763 -1.303,1.206 -2.426,1.206 -1.733,0 -3.299,-1.247 -3.299,-3.466 V 77.04 c 0,-2.218 1.594,-3.466 3.299,-3.466 1.151,0 1.829,0.485 2.397,1.109 v -0.97 h 2.107 v 5.752 c 0,1.316 -0.319,2.302 -0.942,2.924 -0.708,0.708 -1.761,0.999 -3.203,0.999 -1.219,10e-4 -2.341,-0.277 -3.284,-0.776 z m 5.351,-5.545 V 77.04 c 0,-1.012 -0.778,-1.719 -1.816,-1.719 -1.025,0 -1.802,0.707 -1.802,1.719 v 0.027 c 0,1.041 0.762,1.719 1.802,1.719 1.038,0 1.816,-0.707 1.816,-1.719 z"
   id="path64"
   style="fill:#000000" />
		<path
   fill="#ffffff"
   d="m 79.121,73.714 h 2.107 v 1.496 c 0.429,-1.013 1.109,-1.69 2.37,-1.636 v 2.204 h -0.11 c -1.399,0 -2.26,0.832 -2.26,2.62 v 2.744 h -2.107 z"
   id="path66"
   style="fill:#000000" />
		<path
   fill="#ffffff"
   d="m 84.556,77.47 v -0.027 c 0,-2.135 1.718,-3.868 4.033,-3.868 2.288,0 4.007,1.692 4.007,3.84 v 0.028 c 0,2.135 -1.719,3.866 -4.034,3.866 -2.288,0 -4.006,-1.692 -4.006,-3.839 z m 5.96,0 v -0.027 c 0,-1.095 -0.791,-2.051 -1.955,-2.051 -1.207,0 -1.927,0.913 -1.927,2.022 v 0.028 c 0,1.096 0.79,2.051 1.954,2.051 1.206,0 1.928,-0.915 1.928,-2.023 z"
   id="path68"
   style="fill:#000000" />
	</g></g><path
       style="fill:url(#linearGradient2);fill-opacity:1;stroke:#b7b7b7;stroke-width:2.165;stroke-dasharray:none;stroke-opacity:1"
       d="m 135.67928,182.54659 v 67.5839"
       id="path1" /><g
       inkscape:label="Layer 1"
       id="layer1-3"
       transform="matrix(0.42034961,0,0,0.42034961,33.983105,141.24954)"><rect
         style="fill:#f6f6f6;fill-opacity:0.814737;stroke:#000000;stroke-width:2.959;stroke-linecap:round;stroke-linejoin:round;stroke-miterlimit:4;stroke-dasharray:none;stroke-opacity:1;paint-order:stroke fill markers"
         id="rect6294"
         width="172.85893"
         height="172.85893"
         x="21.961674"
         y="92.205177"
         ry="11.189332"
         inkscape:export-filename="C:\Users\tincho\dev\pii\rect6294.png"
         inkscape:export-xdpi="231.14821"
         inkscape:export-ydpi="231.14821" /><path
         style="fill:#eb2141;fill-opacity:1;stroke:#000000;stroke-width:1.46669;stroke-linecap:round;stroke-linejoin:round;stroke-miterlimit:4;stroke-dasharray:none;stroke-opacity:1"
         d="m 34.550242,188.60053 40.276853,14.20392 v 35.99623 L 34.550242,224.59676 Z"
         id="path22409" /><path
         style="fill:#eb2141;fill-opacity:1;stroke:#000000;stroke-width:1.46669;stroke-linecap:round;stroke-linejoin:round;stroke-miterlimit:4;stroke-dasharray:none;stroke-opacity:1"
         d="M 74.827095,238.80063 182.23204,212.14396 V 175.88399 L 74.827095,202.80441 Z"
         id="path22625"
         sodipodi:nodetypes="ccccc" /><g
         id="g5931"
         style="fill:#cccccc;stroke:#000000;stroke-opacity:1"
         transform="matrix(0.7699185,0,0,0.7699185,27.156424,31.315385)"><path
           style="fill:#cccccc;stroke:#000000;stroke-width:1.905;stroke-linecap:round;stroke-linejoin:round;stroke-miterlimit:4;stroke-dasharray:none;stroke-opacity:1"
           d="m 9.6033779,157.19213 52.3131381,18.4486 v 46.75329 L 9.6033779,203.94542 Z"
           id="path22407" /><path
           style="fill:#cccccc;stroke:#000000;stroke-width:1.905;stroke-linecap:round;stroke-linejoin:round;stroke-miterlimit:4;stroke-dasharray:none;stroke-opacity:1"
           d="M 61.916516,222.39402 201.41822,187.77131 V 139.5017 L 61.916516,175.64073 Z"
           id="path22543"
           sodipodi:nodetypes="ccccc" /><path
           style="fill:#cccccc;stroke:#000000;stroke-width:1.905;stroke-linecap:round;stroke-linejoin:round;stroke-miterlimit:4;stroke-dasharray:none;stroke-opacity:1"
           d="M 9.6033779,157.19213 150.98316,121.31134 201.41822,139.5017 61.916516,175.64073 9.6033777,157.19213"
           id="path27330"
           sodipodi:nodetypes="ccccc" /><path
           style="fill:#cccccc;stroke:#000000;stroke-width:1.905;stroke-linecap:round;stroke-linejoin:round;stroke-miterlimit:4;stroke-dasharray:none;stroke-opacity:1"
           d="m 19.120939,144.74729 v 13.75993 c 6.436101,2.46008 14.390385,3.46037 26.983754,0 v -13.93863 c 0,3.81926 -26.983754,4.28091 -26.983754,0.1787 z"
           id="path22660"
           sodipodi:nodetypes="ccccc" /><path
           style="fill:#cccccc;stroke:#000000;stroke-width:1.905;stroke-linecap:round;stroke-linejoin:round;stroke-miterlimit:4;stroke-dasharray:none;stroke-opacity:1"
           d="m 48.389065,156.05084 v 13.75993 c 6.436101,2.46008 14.390385,3.46037 26.983754,0 v -13.93863 c 0,3.81926 -26.983754,4.28091 -26.983754,0.1787 z"
           id="path27161"
           sodipodi:nodetypes="ccccc" /><path
           style="fill:#cccccc;stroke:#000000;stroke-width:1.905;stroke-linecap:round;stroke-linejoin:round;stroke-miterlimit:4;stroke-dasharray:none;stroke-opacity:1"
           d="m 86.336705,146.56393 v 13.75993 c 6.436101,2.46008 14.390385,3.46037 26.983755,0 v -13.93863 c 0,3.81926 -26.983755,4.28091 -26.983755,0.1787 z"
           id="path27169"
           sodipodi:nodetypes="ccccc" /><path
           style="fill:#cccccc;stroke:#000000;stroke-width:1.905;stroke-linecap:round;stroke-linejoin:round;stroke-miterlimit:4;stroke-dasharray:none;stroke-opacity:1"
           d="m 57.068579,135.66408 v 13.75993 c 6.436101,2.46008 14.390385,3.46037 26.983754,0 v -13.93863 c 0,3.81926 -26.983754,4.28091 -26.983754,0.1787 z"
           id="path27177"
           sodipodi:nodetypes="ccccc" /><path
           style="fill:#cccccc;stroke:#000000;stroke-width:1.905;stroke-linecap:round;stroke-linejoin:round;stroke-miterlimit:4;stroke-dasharray:none;stroke-opacity:1"
           d="m 99.658749,125.57162 v 13.75993 c 6.436101,2.46008 14.390381,3.46037 26.983751,0 v -13.93863 c 0,3.81926 -26.983751,4.28091 -26.983751,0.1787 z"
           id="path27185"
           sodipodi:nodetypes="ccccc" /><path
           style="fill:#cccccc;stroke:#000000;stroke-width:1.905;stroke-linecap:round;stroke-linejoin:round;stroke-miterlimit:4;stroke-dasharray:none;stroke-opacity:1"
           d="m 129.33057,136.26963 v 13.75993 c 6.4361,2.46008 14.39038,3.46037 26.98375,0 v -13.93863 c 0,3.81926 -26.98375,4.28091 -26.98375,0.1787 z"
           id="path27193"
           sodipodi:nodetypes="ccccc" /><path
           style="fill:#cccccc;stroke:#000000;stroke-width:1.905;stroke-linecap:round;stroke-linejoin:round;stroke-miterlimit:4;stroke-dasharray:none;stroke-opacity:1"
           d="m 135.78974,115.68101 v 13.75993 c 6.4361,2.46008 14.39038,3.46037 26.98375,0 v -13.93863 c 0,3.81926 -26.98375,4.28091 -26.98375,0.1787 z"
           id="path27201"
           sodipodi:nodetypes="ccccc" /><path
           style="fill:#cccccc;stroke:#000000;stroke-width:1.905;stroke-linecap:round;stroke-linejoin:round;stroke-miterlimit:4;stroke-dasharray:none;stroke-opacity:1"
           d="m 165.05787,126.37902 v 13.75993 c 6.4361,2.46008 14.39038,3.46037 26.98375,0 v -13.93863 c 0,3.81926 -26.98375,4.28091 -26.98375,0.1787 z"
           id="path27209"
           sodipodi:nodetypes="ccccc" /></g><g
         id="g5949"
         style="fill:#ffffff"
         transform="matrix(0.7699185,0,0,0.7699185,27.156424,31.315385)"><g
           id="g24919"
           style="fill:#ffffff;stroke-width:1.905;stroke-linecap:round;stroke-linejoin:round;stroke-miterlimit:4;stroke-dasharray:none"><path
             id="path24917"
             style="fill:#ffffff;stroke:#000000;stroke-width:1.905;stroke-linecap:round;stroke-linejoin:round;stroke-miterlimit:4;stroke-dasharray:none;stroke-opacity:1"
             d="m 46.104693,144.56859 c 0,3.81926 -26.983754,4.28091 -26.983754,0.1787 0,-3.28577 26.983754,-3.27483 26.983754,-0.1787 z"
             sodipodi:nodetypes="ccc" /></g><g
           id="g27165"
           style="fill:#ffffff;stroke-width:1.905;stroke-linecap:round;stroke-linejoin:round;stroke-miterlimit:4;stroke-dasharray:none"
           transform="translate(29.268126,11.303552)"><path
             id="path27163"
             style="fill:#ffffff;stroke:#000000;stroke-width:1.905;stroke-linecap:round;stroke-linejoin:round;stroke-miterlimit:4;stroke-dasharray:none;stroke-opacity:1"
             d="m 46.104693,144.56859 c 0,3.81926 -26.983754,4.28091 -26.983754,0.1787 0,-3.28577 26.983754,-3.27483 26.983754,-0.1787 z"
             sodipodi:nodetypes="ccc" /></g><g
           id="g27173"
           style="fill:#ffffff;stroke-width:1.905;stroke-linecap:round;stroke-linejoin:round;stroke-miterlimit:4;stroke-dasharray:none"
           transform="translate(67.215766,1.816642)"><path
             id="path27171"
             style="fill:#ffffff;stroke:#000000;stroke-width:1.905;stroke-linecap:round;stroke-linejoin:round;stroke-miterlimit:4;stroke-dasharray:none;stroke-opacity:1"
             d="m 46.104693,144.56859 c 0,3.81926 -26.983754,4.28091 -26.983754,0.1787 0,-3.28577 26.983754,-3.27483 26.983754,-0.1787 z"
             sodipodi:nodetypes="ccc" /></g><g
           id="g27181"
           style="fill:#ffffff;stroke-width:1.905;stroke-linecap:round;stroke-linejoin:round;stroke-miterlimit:4;stroke-dasharray:none"
           transform="translate(37.94764,-9.083212)"><path
             id="path27179"
             style="fill:#ffffff;stroke:#000000;stroke-width:1.905;stroke-linecap:round;stroke-linejoin:round;stroke-miterlimit:4;stroke-dasharray:none;stroke-opacity:1"
             d="m 46.104693,144.56859 c 0,3.81926 -26.983754,4.28091 -26.983754,0.1787 0,-3.28577 26.983754,-3.27483 26.983754,-0.1787 z"
             sodipodi:nodetypes="ccc" /></g><g
           id="g27189"
           style="fill:#ffffff;stroke-width:1.905;stroke-linecap:round;stroke-linejoin:round;stroke-miterlimit:4;stroke-dasharray:none"
           transform="translate(80.53781,-19.175669)"><path
             id="path27187"
             style="fill:#ffffff;stroke:#000000;stroke-width:1.905;stroke-linecap:round;stroke-linejoin:round;stroke-miterlimit:4;stroke-dasharray:none;stroke-opacity:1"
             d="m 46.104693,144.56859 c 0,3.81926 -26.983754,4.28091 -26.983754,0.1787 0,-3.28577 26.983754,-3.27483 26.983754,-0.1787 z"
             sodipodi:nodetypes="ccc" /></g><g
           id="g27197"
           style="fill:#ffffff;stroke-width:1.905;stroke-linecap:round;stroke-linejoin:round;stroke-miterlimit:4;stroke-dasharray:none"
           transform="translate(110.20963,-8.4776641)"><path
             id="path27195"
             style="fill:#ffffff;stroke:#000000;stroke-width:1.905;stroke-linecap:round;stroke-linejoin:round;stroke-miterlimit:4;stroke-dasharray:none;stroke-opacity:1"
             d="m 46.104693,144.56859 c 0,3.81926 -26.983754,4.28091 -26.983754,0.1787 0,-3.28577 26.983754,-3.27483 26.983754,-0.1787 z"
             sodipodi:nodetypes="ccc" /></g><g
           id="g27205"
           style="fill:#ffffff;stroke-width:1.905;stroke-linecap:round;stroke-linejoin:round;stroke-miterlimit:4;stroke-dasharray:none"
           transform="translate(116.6688,-29.066277)"><path
             id="path27203"
             style="fill:#ffffff;stroke:#000000;stroke-width:1.905;stroke-linecap:round;stroke-linejoin:round;stroke-miterlimit:4;stroke-dasharray:none;stroke-opacity:1"
             d="m 46.104693,144.56859 c 0,3.81926 -26.983754,4.28091 -26.983754,0.1787 0,-3.28577 26.983754,-3.27483 26.983754,-0.1787 z"
             sodipodi:nodetypes="ccc" /></g><g
           id="g27213"
           style="fill:#ffffff;stroke-width:1.905;stroke-linecap:round;stroke-linejoin:round;stroke-miterlimit:4;stroke-dasharray:none"
           transform="translate(145.93693,-18.368272)"><path
             id="path27211"
             style="fill:#ffffff;stroke:#000000;stroke-width:1.905;stroke-linecap:round;stroke-linejoin:round;stroke-miterlimit:4;stroke-dasharray:none;stroke-opacity:1"
             d="m 46.104693,144.56859 c 0,3.81926 -26.983754,4.28091 -26.983754,0.1787 0,-3.28577 26.983754,-3.27483 26.983754,-0.1787 z"
             sodipodi:nodetypes="ccc" /></g></g><path
         style="fill:none;stroke:none;stroke-width:0.203707px;stroke-linecap:butt;stroke-linejoin:miter;stroke-opacity:1"
         d="M 74.827095,192.76263 182.23204,166.10596"
         id="path29024" /><path
         style="fill:none;stroke:none;stroke-width:0.203707px;stroke-linecap:butt;stroke-linejoin:miter;stroke-opacity:1"
         d="M 74.827095,231.0599 182.23204,204.40323"
         id="path29106" /><g
         aria-label="PII"
         transform="matrix(0.93797277,-0.03278008,-0.36071604,0.95057895,69.243058,18.58131)"
         id="text30584"
         style="font-weight:bold;font-size:40.54px;line-height:1.25;font-family:Fabrikat;-inkscape-font-specification:'Fabrikat, Bold';text-align:center;text-anchor:middle;stroke-width:0.203707"><path
           d="m 106.40882,155.10068 q 5.42979,-1.34761 8.49452,0.39796 3.09432,1.69645 4.10991,5.78846 0.60545,2.43947 0.11953,4.85742 -0.49567,2.3786 -2.57354,4.27271 -2.03853,1.88434 -6.13054,2.89993 l -2.55751,0.63475 2.48039,9.99395 -5.94129,1.47456 -6.972425,-28.09325 z m 0.89613,4.95707 -2.7149,0.6738 2.07024,8.34142 1.96732,-0.48827 q 2.51816,-0.62498 3.72984,-1.96995 1.24126,-1.39409 0.68464,-3.63682 -1.01559,-4.09202 -5.73714,-2.92018 z"
           style="font-family:sans-serif;-inkscape-font-specification:'sans-serif, Bold'"
           id="path7187" /><path
           d="m 139.62523,176.68048 -12.78754,3.17372 -0.83982,-3.38378 3.03252,-2.42344 -4.51157,-18.17798 -3.81374,-0.72427 -0.83981,-3.38378 12.78754,-3.17373 0.83982,3.38379 -3.03252,2.42343 4.51157,18.17798 3.81374,0.72428 z"
           style="font-family:sans-serif;-inkscape-font-specification:'sans-serif, Bold'"
           id="path7189" /><path
           d="m 154.93093,172.88179 -12.78755,3.17372 -0.83981,-3.38378 3.03251,-2.42344 -4.51156,-18.17798 -3.81374,-0.72427 -0.83982,-3.38379 12.78755,-3.17372 0.83981,3.38378 -3.03251,2.42344 4.51156,18.17798 3.81374,0.72427 z"
           style="font-family:sans-serif;-inkscape-font-specification:'sans-serif, Bold'"
           id="path7191" /></g><g
         aria-label="UNRN"
         transform="matrix(0.8893923,-0.0310823,-0.34203347,0.90134567,74.246018,62.094875)"
         id="text47781"
         style="font-weight:bold;font-size:40.54px;line-height:1.25;font-family:Fabrikat;-inkscape-font-specification:'Fabrikat, Bold';text-align:center;text-anchor:middle;fill:#ffffff;stroke-width:0.203707"><path
           d="m 95.189018,177.93487 q 0.671016,2.70365 0.0094,5.19504 -0.634148,2.44578 -2.728142,4.32301 -2.066526,1.83162 -5.720112,2.7384 -5.188091,1.28763 -8.544624,-0.67194 -3.365601,-1.9961 -4.444667,-6.34387 l -4.171177,-16.80649 5.516914,-1.36924 3.962619,15.96617 q 0.797964,3.21516 2.439695,4.20401 1.64173,0.98885 4.235776,0.34504 2.703653,-0.67102 3.555693,-2.39515 0.888576,-1.73321 0.13595,-4.76568 l -3.953551,-15.92963 5.516914,-1.36924 z"
           style="font-weight:900;font-size:37.6443px;font-family:'Fabrikat Normal';-inkscape-font-specification:'Fabrikat Normal, Heavy'"
           id="path7178" /><path
           d="m 126.99509,179.81514 -7.01489,1.74101 -16.25925,-16.90928 -0.14614,0.0363 q 0.53553,1.84519 1.07106,3.69038 0.57206,1.83613 1.10759,3.68132 l 3.04677,12.27605 -4.93234,1.22415 -6.474392,-26.0866 6.978352,-1.73195 16.17737,16.73567 0.10961,-0.0272 q -0.48993,-1.81772 -1.00732,-3.58984 -0.51739,-1.77213 -1.03478,-3.54425 l -3.06491,-12.34912 4.96887,-1.23321 z"
           style="font-weight:900;font-size:37.6443px;font-family:'Fabrikat Normal';-inkscape-font-specification:'Fabrikat Normal, Heavy'"
           id="path7180" /><path
           d="m 134.69658,150.21024 q 5.33424,-1.32389 8.33581,-0.0132 3.0381,1.30166 4.01742,5.24753 0.44432,1.79025 0.0856,3.31437 -0.3312,1.47851 -1.22805,2.70954 -0.86938,1.18543 -2.00305,2.08738 l 10.49261,9.45842 -6.13803,1.52338 -8.69566,-8.4693 -2.95941,0.73449 2.48457,10.01082 -5.51691,1.36924 -6.47439,-26.0866 z m 0.72251,4.63019 -1.68064,0.41712 1.75008,7.05142 1.79025,-0.44432 q 2.74019,-0.68008 3.68264,-1.88365 0.97899,-1.21263 0.53467,-3.00289 -0.46245,-1.86333 -1.93163,-2.31321 -1.44171,-0.49548 -4.14537,0.17553 z"
           style="font-weight:900;font-size:37.6443px;font-family:'Fabrikat Normal';-inkscape-font-specification:'Fabrikat Normal, Heavy'"
           id="path7182" /><path
           d="m 180.81239,166.45831 -7.01488,1.74101 -16.25925,-16.90928 -0.14614,0.0363 q 0.53552,1.84519 1.07105,3.69039 0.57207,1.83612 1.1076,3.68132 l 3.04677,12.27604 -4.93234,1.22415 -6.4744,-26.0866 6.97835,-1.73194 16.17738,16.73567 0.10961,-0.0272 q -0.48993,-1.81772 -1.00732,-3.58984 -0.51739,-1.77212 -1.03479,-3.54424 l -3.06491,-12.34912 4.96888,-1.23322 z"
           style="font-weight:900;font-size:37.6443px;font-family:'Fabrikat Normal';-inkscape-font-specification:'Fabrikat Normal, Heavy'"
           id="path7184" /></g></g></g></svg>
