<?xml version="1.0" encoding="UTF-8" standalone="no"?>
<svg width="600" height="350" viewBox="0 0 600 350" xmlns="http://www.w3.org/2000/svg">
  <style>
    @font-face { font-family: 'Lato'; font-weight: 700; src: local('Arial'); }
    .label-bold { font-family: 'Lato', sans-serif; font-size: 13px; font-weight: 700; fill: #192437; }
    .label { font-family: 'Lato', sans-serif; font-size: 11px; fill: #404040; }
    .node { fill: #ffffff; stroke: #404040; stroke-width: 1.5; }
    .line { stroke: #404040; stroke-width: 1.2; fill: none; }
  </style>
  <defs>
    <marker id="diamond" markerWidth="10" markerHeight="10" refX="10" refY="5" orient="auto">
      <path d="M 0,5 L 5,10 L 10,5 L 5,0 Z" fill="#404040"/>
    </marker>
    <marker id="open-diamond" markerWidth="10" markerHeight="10" refX="10" refY="5" orient="auto">
      <path d="M 0,5 L 5,10 L 10,5 L 5,0 Z" fill="#ffffff" stroke="#404040" stroke-width="1"/>
    </marker>
  </defs>
  
  <!-- Labels -->
  <rect x="50" y="50" width="120" height="30" class="node"/>
  <text x="110" y="70" class="label-bold" text-anchor="middle">Universidad</text>
  <text x="180" y="60" class="label">1</text>
  <path d="M 170,65 L 280,65" class="line" marker-start="url(#diamond)"/>
  <text x="270" y="60" class="label">1..*</text>
  <rect x="280" y="50" width="120" height="30" class="node"/>
  <text x="340" y="70" class="label-bold" text-anchor="middle">Facultad</text>
  
  <rect x="50" y="100" width="120" height="30" class="node"/>
  <text x="110" y="120" class="label-bold" text-anchor="middle">Facultad</text>
  <text x="180" y="110" class="label">1</text>
  <path d="M 170,115 L 280,115" class="line" marker-start="url(#diamond)"/>
  <text x="270" y="110" class="label">1..*</text>
  <rect x="280" y="100" width="120" height="30" class="node"/>
  <text x="340" y="120" class="label-bold" text-anchor="middle">Departamento</text>
  
  <rect x="50" y="150" width="120" height="30" class="node"/>
  <text x="110" y="170" class="label-bold" text-anchor="middle">Carrera</text>
  <text x="180" y="160" class="label">1</text>
  <path d="M 170,165 L 280,165" class="line" marker-start="url(#diamond)"/>
  <text x="270" y="160" class="label">5..*</text>
  <rect x="280" y="150" width="120" height="30" class="node"/>
  <text x="340" y="170" class="label-bold" text-anchor="middle">Materia</text>
  
  <rect x="50" y="200" width="120" height="30" class="node"/>
  <text x="110" y="220" class="label-bold" text-anchor="middle">Departamento</text>
  <text x="180" y="210" class="label">1</text>
  <path d="M 170,215 L 280,215" class="line" marker-start="url(#open-diamond)"/>
  <text x="270" y="210" class="label">1..*</text>
  <rect x="280" y="200" width="120" height="30" class="node"/>
  <text x="340" y="220" class="label-bold" text-anchor="middle">Profesor</text>
  
  <rect x="50" y="250" width="120" height="30" class="node"/>
  <text x="110" y="270" class="label-bold" text-anchor="middle">Profesor</text>
  <text x="180" y="260" class="label">1..*</text>
  <path d="M 170,265 L 280,265" class="line"/>
  <text x="270" y="260" class="label">1..*</text>
  <rect x="280" y="250" width="120" height="30" class="node"/>
  <text x="340" y="270" class="label-bold" text-anchor="middle">Materia</text>
  
  <rect x="50" y="300" width="120" height="30" class="node"/>
  <text x="110" y="320" class="label-bold" text-anchor="middle">Estudiante</text>
  <text x="180" y="310" class="label">*</text>
  <path d="M 170,315 L 280,315" class="line"/>
  <text x="270" y="310" class="label">1</text>
  <rect x="280" y="300" width="120" height="30" class="node"/>
  <text x="340" y="320" class="label-bold" text-anchor="middle">Carrera</text>
</svg>
