<?xml version="1.0" encoding="UTF-8" standalone="no"?>
<?xml-stylesheet href="../resources/svg.css" type="text/css"?>
<svg width="800" height="500" viewBox="0 0 800 500" xmlns="http://www.w3.org/2000/svg">
  <title>Flujo de Ejecución de Lazos en Java</title>
  
  <!-- Título -->
  <text x="400" y="30" class="title">Comparación de Lazos: for, while, do-while</text>
  
  <!-- Lazo FOR -->
  <g id="for-loop">
    <text x="130" y="65" class="subtitle">Lazo for</text>
    
    <rect x="20" y="80" width="220" height="380" class="code-block"/>
    
    <!-- Paso 1: Inicialización -->
    <rect x="40" y="100" width="180" height="40" class="queue-data"/>
    <text x="130" y="125" class="code">1. Inicialización</text>
    <text x="40" y="155" class="label-small">int i = 0</text>
    <text x="40" y="170" class="code-comment">(solo una vez)</text>
    
    <!-- Paso 2: Condición -->
    <rect x="40" y="190" width="180" height="40" class="stack-data"/>
    <text x="130" y="215" class="code">2. Condición</text>
    <text x="40" y="245" class="label-small">i &lt; 5</text>
    <text x="40" y="260" class="code-comment">(cada iteración)</text>
    
    <!-- Paso 3: Cuerpo -->
    <rect x="40" y="280" width="180" height="40" class="list-data"/>
    <text x="130" y="305" class="code">3. Cuerpo</text>
    <text x="40" y="335" class="label-small">Código del lazo</text>
    
    <!-- Paso 4: Actualización -->
    <rect x="40" y="340" width="180" height="40" class="deque-data"/>
    <text x="130" y="365" class="code">4. Actualización</text>
    <text x="40" y="395" class="label-small">i = i + 1</text>
    <text x="40" y="410" class="code-comment">(después del cuerpo)</text>
    
    <!-- Flecha de ciclo -->
    <defs>
      <marker id="arrow-for" markerWidth="10" markerHeight="10" refX="9" refY="3" orient="auto">
        <polygon points="0 0, 10 3, 0 6" fill="#2e7d32"/>
      </marker>
    </defs>
    <path d="M 220 360 Q 260 280 220 210" fill="none" stroke="#2e7d32" stroke-width="2" marker-end="url(#arrow-for)"/>
    <text x="245" y="285" class="label-small">vuelve</text>
  </g>
  
  <!-- Lazo WHILE -->
  <g id="while-loop">
    <text x="400" y="65" class="subtitle">Lazo while</text>
    
    <rect x="290" y="80" width="220" height="270" class="code-block"/>
    
    <!-- Condición (antes) -->
    <rect x="310" y="100" width="180" height="50" class="stack-data"/>
    <text x="400" y="130" class="code">1. Condición</text>
    <text x="310" y="160" class="label-small">Evalúa ANTES</text>
    <text x="310" y="175" class="code-comment">(puede no ejecutarse)</text>
    
    <!-- Cuerpo -->
    <rect x="310" y="170" width="180" height="50" class="list-data"/>
    <text x="400" y="200" class="code">2. Cuerpo</text>
    <text x="310" y="230" class="code-comment">Si condición es true</text>
    
    <!-- Actualización manual -->
    <rect x="310" y="240" width="180" height="50" class="deque-data"/>
    <text x="400" y="270" class="code">3. Actualización</text>
    <text x="310" y="300" class="label-small">Manual en el cuerpo</text>
    
    <!-- Flecha de ciclo -->
    <path d="M 490 260 Q 530 190 490 130" fill="none" stroke="#2e7d32" stroke-width="2" marker-end="url(#arrow-for)"/>
    <text x="515" y="195" class="label-small">vuelve</text>
    
    <!-- Ejecución mínima -->
    <text x="400" y="330" class="label-bold">Ejecución: 0 o más veces</text>
  </g>
  
  <!-- Lazo DO-WHILE -->
  <g id="do-while-loop">
    <text x="670" y="65" class="subtitle">Lazo do-while</text>
    
    <rect x="560" y="80" width="220" height="270" class="code-block"/>
    
    <!-- Cuerpo (primero) -->
    <rect x="580" y="100" width="180" height="50" class="list-data"/>
    <text x="670" y="130" class="code">1. Cuerpo</text>
    <text x="580" y="160" class="code-comment">SIEMPRE se ejecuta</text>
    
    <!-- Actualización -->
    <rect x="580" y="170" width="180" height="50" class="deque-data"/>
    <text x="670" y="200" class="code">2. Actualización</text>
    <text x="580" y="230" class="label-small">Manual en el cuerpo</text>
    
    <!-- Condición (después) -->
    <rect x="580" y="240" width="180" height="50" class="stack-data"/>
    <text x="670" y="270" class="code">3. Condición</text>
    <text x="580" y="300" class="label-small">Evalúa DESPUÉS</text>
    
    <!-- Flecha de ciclo -->
    <path d="M 760 260 Q 800 170 760 120" fill="none" stroke="#2e7d32" stroke-width="2" marker-end="url(#arrow-for)"/>
    <text x="783" y="190" class="label-small">vuelve</text>
    
    <!-- Ejecución mínima -->
    <text x="670" y="330" class="label-bold">Ejecución: 1 o más veces</text>
  </g>
  
  <!-- Tabla comparativa -->
  <rect x="20" y="420" width="760" height="1" class="divider-bold"/>
  <text x="30" y="450" class="label-small">✓ for: cuando sabés cuántas iteraciones | while: cuando NO sabés | do-while: al menos 1 vez</text>
  <text x="30" y="470" class="label-small">⚠️ En este curso: NO usar break/continue, usar banderas booleanas para salir anticipadamente</text>
</svg>
