<?xml version="1.0" encoding="UTF-8" standalone="no"?>
<?xml-stylesheet href="../resources/svg.css" type="text/css"?>
<svg width="700" height="400" viewBox="0 0 700 400" xmlns="http://www.w3.org/2000/svg">
  <title>Patrón de Búsqueda con Bandera Booleana</title>
  
  <!-- Título -->
  <text x="350" y="30" class="title">Patrón de Búsqueda con Bandera (sin break)</text>
  
  <!-- Código -->
  <rect x="50" y="60" width="600" height="270" class="code-block"/>
  
  <text x="70" y="85" class="code-keyword">int</text>
  <text x="95" y="85" class="code">[] numeros = {10, 25, 30, 45, 50};</text>
  <text x="70" y="105" class="code-keyword">int</text>
  <text x="95" y="105" class="code"> buscado = 30;</text>
  
  <text x="70" y="130" class="code-keyword">boolean</text>
  <text x="130" y="130" class="code"> encontrado = </text>
  <text x="235" y="130" class="code-keyword">false</text>
  <text x="270" y="130" class="code">;</text>
  <rect x="290" y="115" width="90" height="20" class="queue-pointer"/>
  <text x="295" y="128" class="label-small">Bandera</text>
  
  <text x="70" y="150" class="code-keyword">int</text>
  <text x="95" y="150" class="code"> posicion = -1;</text>
  <text x="70" y="170" class="code-keyword">int</text>
  <text x="95" y="170" class="code"> i = 0;</text>
  
  <text x="70" y="195" class="code-keyword">while</text>
  <text x="115" y="195" class="code"> (i &lt; numeros.length &amp;&amp; </text>
  <rect x="290" y="180" width="100" height="20" class="node-highlight"/>
  <text x="295" y="193" class="label-bold">!encontrado</text>
  <text x="395" y="195" class="code">) {</text>
  
  <text x="90" y="215" class="code-keyword">    if</text>
  <text x="120" y="215" class="code"> (numeros[i] == buscado) {</text>
  <text x="110" y="235" class="code">        encontrado = </text>
  <text x="230" y="235" class="code-keyword">true</text>
  <text x="265" y="235" class="code">;</text>
  <rect x="290" y="220" width="200" height="20" class="stack-data"/>
  <text x="295" y="233" class="label-small">Cambia bandera → sale del lazo</text>
  
  <text x="110" y="255" class="code">        posicion = i;</text>
  <text x="90" y="275" class="code">    }</text>
  <text x="90" y="295" class="code">    i = i + 1;</text>
  <text x="70" y="315" class="code">}</text>
  
  <!-- Ventajas del patrón -->
  <rect x="50" y="345" width="600" height="45" class="info-box"/>
  <text x="70" y="365" class="label-bold">✓ Ventajas del patrón con bandera:</text>
  <text x="70" y="380" class="label-small">• Más explícito y legible que break</text>
  <text x="350" y="380" class="label-small">• La condición del while muestra claramente cuándo termina</text>
</svg>
